<svg xmlns="http://www.w3.org/2000/svg" xmlns:xlink="http://www.w3.org/1999/xlink" version="1.1" width="940" height="788" viewBox="0 0 940 788" xml:space="preserve">
<desc>Created with Fabric.js 3.5.0</desc>
<defs>
</defs>
<rect x="0" y="0" width="100%" height="100%" fill="#ffffff"/>
<g transform="matrix(1.5875 0 0 1.6672 469.9997 394.0001)" id="874848">
<g style="" vector-effect="non-scaling-stroke">
		<g transform="matrix(1 0 0 1 -3 -3)" id="Layer_2">
<path style="stroke: none; stroke-width: 1; stroke-dasharray: none; stroke-linecap: butt; stroke-dashoffset: 0; stroke-linejoin: miter; stroke-miterlimit: 4; is-custom-font: none; font-file-url: none; fill: rgb(167,165,165); fill-rule: nonzero; opacity: 1;" transform=" translate(-13, -13)" d="M 13 23 A 10 10 0 1 1 23 13 A 10 10 0 0 1 13 23 Z M 13 5 a 8 8 0 1 0 8 8 A 8 8 0 0 0 13 5 Z" stroke-linecap="round"/>
</g>
		<g transform="matrix(1 0 0 1 8.0008 7.998)" id="Layer_2">
<path style="stroke: none; stroke-width: 1; stroke-dasharray: none; stroke-linecap: butt; stroke-dashoffset: 0; stroke-linejoin: miter; stroke-miterlimit: 4; is-custom-font: none; font-file-url: none; fill: rgb(167,165,165); fill-rule: nonzero; opacity: 1;" transform=" translate(-24.0009, -23.998)" d="M 28 29 a 1 1 0 0 1 -0.71 -0.29 l -8 -8 a 1 1 0 0 1 1.42 -1.42 l 8 8 a 1 1 0 0 1 0 1.42 A 1 1 0 0 1 28 29 Z" stroke-linecap="round"/>
</g>
		<g transform="matrix(1 0 0 1 0 0)" id="frame">
<rect style="stroke: none; stroke-width: 1; stroke-dasharray: none; stroke-linecap: butt; stroke-dashoffset: 0; stroke-linejoin: miter; stroke-miterlimit: 4; is-custom-font: none; font-file-url: none; fill: none; fill-rule: nonzero; opacity: 1;" x="-16" y="-16" rx="0" ry="0" width="32" height="32"/>
</g>
</g>
</g>
</svg>